<svg width="390" height="844" viewBox="0 0 390 844" xmlns="http://www.w3.org/2000/svg" font-family="Inter, system-ui, sans-serif">
  <!-- Background -->
  <rect width="390" height="844" fill="#0f0b08"/>
  <!-- Status bar -->
  <rect width="390" height="44" fill="#0f0b08"/>
  <text x="20" y="28" fill="#f0e8d8" font-size="13" font-weight="600">9:41</text>
  <text x="340" y="28" fill="#f0e8d8" font-size="12">●●● 100%</text>

  <!-- Header -->
  <rect x="0" y="44" width="390" height="56" fill="#0f0b08"/>
  <text x="20" y="80" fill="#f0e8d8" font-size="20" font-weight="bold">AfriTube</text>

  <!-- Search bar -->
  <rect x="16" y="112" width="358" height="44" rx="999" fill="#2a2018"/>
  <text x="44" y="139" fill="#8a7a6a" font-size="14">🔍  Search videos, music, blogs...</text>

  <!-- Hero -->
  <text x="16" y="184" fill="#e8920a" font-size="12" font-weight="600">Africa's #1 Content Platform</text>
  <text x="16" y="210" fill="#f0e8d8" font-size="28" font-weight="bold">Watch. Listen.</text>
  <text x="16" y="244" fill="#e8920a" font-size="28" font-weight="bold">Create.</text>
  <!-- Hero buttons -->
  <rect x="16" y="260" width="130" height="40" rx="999" fill="#e8920a"/>
  <text x="81" y="285" fill="#0f0b08" font-size="14" font-weight="600" text-anchor="middle">▶ Start Watching</text>
  <rect x="156" y="260" width="100" height="40" rx="999" fill="none" stroke="#2a2018" stroke-width="1"/>
  <text x="206" y="285" fill="#f0e8d8" font-size="14" text-anchor="middle">↑ Upload</text>

  <!-- Category pills -->
  <rect x="16" y="316" width="80" height="30" rx="999" fill="#e8920a"/>
  <text x="56" y="336" fill="#0f0b08" font-size="13" font-weight="500" text-anchor="middle">Trending</text>
  <rect x="104" y="316" width="68" height="30" rx="999" fill="#2a2018"/>
  <text x="138" y="336" fill="#8a7a6a" font-size="13" text-anchor="middle">Music</text>
  <rect x="180" y="316" width="72" height="30" rx="999" fill="#2a2018"/>
  <text x="216" y="336" fill="#8a7a6a" font-size="13" text-anchor="middle">Comedy</text>
  <rect x="260" y="316" width="52" height="30" rx="999" fill="#2a2018"/>
  <text x="286" y="336" fill="#8a7a6a" font-size="13" text-anchor="middle">Tech</text>

  <!-- Trending Videos section header -->
  <text x="16" y="374" fill="#f0e8d8" font-size="20" font-weight="bold">Trending Videos</text>
  <text x="340" y="374" fill="#e8920a" font-size="13" font-weight="600">See all ›</text>

  <!-- Video card 1 -->
  <rect x="16" y="388" width="358" height="200" rx="10" fill="#1a1410"/>
  <rect x="16" y="388" width="358" height="140" rx="10" fill="#2a2018"/>
  <text x="195" y="465" fill="#8a7a6a" font-size="13" text-anchor="middle">▶ Video Thumbnail</text>
  <rect x="310" y="416" width="52" height="20" rx="4" fill="rgba(0,0,0,0.8)"/>
  <text x="336" y="430" fill="#ffffff" font-size="11" font-weight="600" text-anchor="middle">12:34</text>
  <text x="28" y="552" fill="#f0e8d8" font-size="14" font-weight="600">Nairobi Street Food Tour - Best Spots 2025</text>
  <text x="28" y="572" fill="#8a7a6a" font-size="12">AfriCreator · 24.5K views</text>

  <!-- Video card 2 -->
  <rect x="16" y="596" width="358" height="200" rx="10" fill="#1a1410"/>
  <rect x="16" y="596" width="358" height="140" rx="10" fill="#2a2018"/>
  <text x="195" y="673" fill="#8a7a6a" font-size="13" text-anchor="middle">▶ Video Thumbnail</text>
  <rect x="310" y="624" width="44" height="20" rx="4" fill="rgba(0,0,0,0.8)"/>
  <text x="332" y="638" fill="#ffffff" font-size="11" font-weight="600" text-anchor="middle">8:22</text>
  <text x="28" y="760" fill="#f0e8d8" font-size="14" font-weight="600">Amapiano Dance Challenge 2025</text>
  <text x="28" y="780" fill="#8a7a6a" font-size="12">DanceKing · 18.2K views</text>

  <!-- Bottom tab bar -->
  <rect x="0" y="784" width="390" height="60" fill="#1a1410" stroke="#2a2018" stroke-width="1"/>
  <text x="49" y="808" fill="#e8920a" font-size="22" text-anchor="middle">⌂</text>
  <text x="49" y="826" fill="#e8920a" font-size="11" text-anchor="middle">Home</text>
  <text x="147" y="808" fill="#8a7a6a" font-size="22" text-anchor="middle">♪</text>
  <text x="147" y="826" fill="#8a7a6a" font-size="11" text-anchor="middle">Music</text>
  <text x="245" y="808" fill="#8a7a6a" font-size="22" text-anchor="middle">📖</text>
  <text x="245" y="826" fill="#8a7a6a" font-size="11" text-anchor="middle">Blogs</text>
  <text x="343" y="808" fill="#8a7a6a" font-size="22" text-anchor="middle">👤</text>
  <text x="343" y="826" fill="#8a7a6a" font-size="11" text-anchor="middle">Dashboard</text>
</svg>
