<svg width="390" height="844" viewBox="0 0 390 844" xmlns="http://www.w3.org/2000/svg" font-family="Inter, system-ui, sans-serif">
  <rect width="390" height="844" fill="#0f0b08"/>
  <!-- Status bar -->
  <rect width="390" height="44" fill="#0f0b08"/>
  <text x="20" y="28" fill="#f0e8d8" font-size="13" font-weight="600">9:41</text>
  <text x="340" y="28" fill="#f0e8d8" font-size="12">●●● 100%</text>
  <!-- Header -->
  <rect x="0" y="44" width="390" height="56" fill="#0f0b08"/>
  <text x="20" y="80" fill="#f0e8d8" font-size="20" font-weight="bold">Music</text>

  <!-- Section header -->
  <text x="16" y="128" fill="#f0e8d8" font-size="20" font-weight="bold">Hot Tracks</text>
  <text x="16" y="148" fill="#8a7a6a" font-size="13">Afrobeats, Amapiano, Highlife and more</text>

  <!-- Audio card 1 -->
  <rect x="16" y="168" width="170" height="220" rx="14" fill="#1a1410"/>
  <rect x="16" y="168" width="170" height="140" rx="10" fill="#2a2018"/>
  <text x="101" y="245" fill="#8a7a6a" font-size="24" text-anchor="middle">♪</text>
  <circle cx="101" cy="238" r="20" fill="rgba(0,0,0,0.3)"/>
  <text x="101" y="245" fill="#ffffff" font-size="18" text-anchor="middle">▶</text>
  <text x="28" y="328" fill="#f0e8d8" font-size="13" font-weight="600">Jabulani</text>
  <text x="28" y="346" fill="#8a7a6a" font-size="12">Afro Beats SA</text>
  <text x="28" y="362" fill="#8a7a6a" font-size="11">12.4K streams</text>

  <!-- Audio card 2 -->
  <rect x="204" y="168" width="170" height="220" rx="14" fill="#1a1410"/>
  <rect x="204" y="168" width="170" height="140" rx="10" fill="#2a2018"/>
  <circle cx="289" cy="238" r="20" fill="rgba(0,0,0,0.3)"/>
  <text x="289" y="245" fill="#ffffff" font-size="18" text-anchor="middle">▶</text>
  <text x="216" y="328" fill="#f0e8d8" font-size="13" font-weight="600">Lagos Nights</text>
  <text x="216" y="346" fill="#8a7a6a" font-size="12">Naija Vibes</text>
  <text x="216" y="362" fill="#8a7a6a" font-size="11">9.8K streams</text>

  <!-- Audio card 3 -->
  <rect x="16" y="404" width="170" height="220" rx="14" fill="#1a1410"/>
  <rect x="16" y="404" width="170" height="140" rx="10" fill="#2a2018"/>
  <circle cx="101" cy="474" r="20" fill="rgba(0,0,0,0.3)"/>
  <text x="101" y="481" fill="#ffffff" font-size="18" text-anchor="middle">▶</text>
  <text x="28" y="564" fill="#f0e8d8" font-size="13" font-weight="600">Highlife Groove</text>
  <text x="28" y="582" fill="#8a7a6a" font-size="12">Ghana Sounds</text>
  <text x="28" y="598" fill="#8a7a6a" font-size="11">7.2K streams</text>

  <!-- Audio card 4 -->
  <rect x="204" y="404" width="170" height="220" rx="14" fill="#1a1410"/>
  <rect x="204" y="404" width="170" height="140" rx="10" fill="#2a2018"/>
  <circle cx="289" cy="474" r="20" fill="rgba(0,0,0,0.3)"/>
  <text x="289" y="481" fill="#ffffff" font-size="18" text-anchor="middle">▶</text>
  <text x="216" y="564" fill="#f0e8d8" font-size="13" font-weight="600">Bongo Flava Mix</text>
  <text x="216" y="582" fill="#8a7a6a" font-size="12">East Africa Hits</text>
  <text x="216" y="598" fill="#8a7a6a" font-size="11">5.6K streams</text>

  <!-- Bottom tab bar -->
  <rect x="0" y="784" width="390" height="60" fill="#1a1410" stroke="#2a2018" stroke-width="1"/>
  <text x="49" y="808" fill="#8a7a6a" font-size="22" text-anchor="middle">⌂</text>
  <text x="49" y="826" fill="#8a7a6a" font-size="11" text-anchor="middle">Home</text>
  <text x="147" y="808" fill="#e8920a" font-size="22" text-anchor="middle">♪</text>
  <text x="147" y="826" fill="#e8920a" font-size="11" text-anchor="middle">Music</text>
  <text x="245" y="808" fill="#8a7a6a" font-size="22" text-anchor="middle">📖</text>
  <text x="245" y="826" fill="#8a7a6a" font-size="11" text-anchor="middle">Blogs</text>
  <text x="343" y="808" fill="#8a7a6a" font-size="22" text-anchor="middle">👤</text>
  <text x="343" y="826" fill="#8a7a6a" font-size="11" text-anchor="middle">Dashboard</text>
</svg>
