<svg width="390" height="844" viewBox="0 0 390 844" xmlns="http://www.w3.org/2000/svg" font-family="Inter, system-ui, sans-serif">
  <rect width="390" height="844" fill="#0f0b08"/>
  <!-- Status bar -->
  <rect width="390" height="44" fill="#0f0b08"/>
  <text x="20" y="28" fill="#f0e8d8" font-size="13" font-weight="600">9:41</text>
  <text x="340" y="28" fill="#f0e8d8" font-size="12">●●● 100%</text>
  <!-- Header -->
  <rect x="0" y="44" width="390" height="56" fill="#0f0b08"/>
  <text x="20" y="80" fill="#f0e8d8" font-size="20" font-weight="bold">Blogs</text>

  <!-- Section header -->
  <text x="16" y="128" fill="#f0e8d8" font-size="20" font-weight="bold">Featured Stories</text>
  <text x="16" y="148" fill="#8a7a6a" font-size="13">Voices and stories from the continent</text>

  <!-- Blog card 1 (the 1 live article) -->
  <rect x="16" y="168" width="358" height="280" rx="14" fill="#1a1410"/>
  <!-- Cover image placeholder -->
  <rect x="16" y="168" width="358" height="180" rx="10" fill="#2a2018"/>
  <text x="195" y="265" fill="#8a7a6a" font-size="14" text-anchor="middle">📷 Blog Cover Image</text>
  <!-- Card body -->
  <rect x="28" y="360" width="72" height="22" rx="6" fill="#e8920a33"/>
  <text x="64" y="375" fill="#e8920a" font-size="11" font-weight="600" text-anchor="middle">Culture</text>
  <text x="28" y="402" fill="#f0e8d8" font-size="16" font-weight="700">The Rise of African Digital</text>
  <text x="28" y="422" fill="#f0e8d8" font-size="16" font-weight="700">Creators in 2025</text>
  <text x="28" y="444" fill="#8a7a6a" font-size="13">How African creators are reshaping the</text>
  <text x="28" y="460" fill="#8a7a6a" font-size="13">global content landscape...</text>
  <!-- Meta -->
  <text x="28" y="488" fill="#8a7a6a" font-size="12" font-weight="500">AfriTube Team</text>
  <text x="120" y="488" fill="#8a7a6a" font-size="12">·</text>
  <text x="130" y="488" fill="#8a7a6a" font-size="12">42 likes</text>

  <!-- Empty state hint -->
  <text x="195" y="580" fill="#8a7a6a" font-size="14" text-anchor="middle">More stories coming soon...</text>

  <!-- Bottom tab bar -->
  <rect x="0" y="784" width="390" height="60" fill="#1a1410" stroke="#2a2018" stroke-width="1"/>
  <text x="49" y="808" fill="#8a7a6a" font-size="22" text-anchor="middle">⌂</text>
  <text x="49" y="826" fill="#8a7a6a" font-size="11" text-anchor="middle">Home</text>
  <text x="147" y="808" fill="#8a7a6a" font-size="22" text-anchor="middle">♪</text>
  <text x="147" y="826" fill="#8a7a6a" font-size="11" text-anchor="middle">Music</text>
  <text x="245" y="808" fill="#e8920a" font-size="22" text-anchor="middle">📖</text>
  <text x="245" y="826" fill="#e8920a" font-size="11" text-anchor="middle">Blogs</text>
  <text x="343" y="808" fill="#8a7a6a" font-size="22" text-anchor="middle">👤</text>
  <text x="343" y="826" fill="#8a7a6a" font-size="11" text-anchor="middle">Dashboard</text>
</svg>
