<svg xmlns="http://www.w3.org/2000/svg" width="390" height="844" viewBox="0 0 390 844">
  <!-- Background -->
  <rect width="390" height="844" fill="#0f0b08" rx="40"/>

  <!-- Status bar -->
  <text x="20" y="26" fill="#f0e8d8" font-size="12" font-family="sans-serif">9:41</text>
  <text x="340" y="26" fill="#f0e8d8" font-size="12" font-family="sans-serif">●●●</text>

  <!-- Search Bar -->
  <rect x="16" y="44" width="358" height="40" rx="20" fill="#2a2018"/>
  <!-- Search icon circle -->
  <circle cx="40" cy="64" r="7" fill="none" stroke="#8a7a6a" stroke-width="2"/>
  <line x1="45" y1="69" x2="50" y2="74" stroke="#8a7a6a" stroke-width="2" stroke-linecap="round"/>
  <text x="58" y="69" fill="#8a7a6a" font-size="13" font-family="sans-serif">Search videos, music, blogs...</text>

  <!-- Hero Section -->
  <text x="16" y="112" fill="#e8920a" font-size="11" font-weight="600" font-family="sans-serif">Africa's #1 Content Platform</text>
  <text x="16" y="142" fill="#f0e8d8" font-size="30" font-weight="bold" font-family="sans-serif">Watch. Listen.</text>
  <text x="16" y="176" fill="#e8920a" font-size="30" font-weight="bold" font-family="sans-serif">Create.</text>

  <!-- Hero Buttons -->
  <rect x="16" y="192" width="148" height="38" rx="19" fill="#e8920a"/>
  <!-- Play icon triangle -->
  <polygon points="30,211 30,221 40,216" fill="#0f0b08"/>
  <text x="98" y="216" fill="#0f0b08" font-size="14" font-weight="600" font-family="sans-serif" text-anchor="middle">Start Watching</text>

  <rect x="172" y="192" width="100" height="38" rx="19" fill="none" stroke="#2a2018" stroke-width="1"/>
  <text x="222" y="216" fill="#f0e8d8" font-size="14" font-family="sans-serif" text-anchor="middle">Upload</text>

  <!-- Section Header: Trending Videos -->
  <text x="16" y="256" fill="#f0e8d8" font-size="16" font-weight="700" font-family="sans-serif">Trending Videos</text>
  <text x="358" y="256" fill="#e8920a" font-size="12" font-family="sans-serif" text-anchor="end">See all</text>

  <!-- Category Pills -->
  <rect x="16" y="266" width="76" height="28" rx="14" fill="#e8920a"/>
  <text x="54" y="285" fill="#0f0b08" font-size="12" font-weight="500" font-family="sans-serif" text-anchor="middle">Trending</text>
  <rect x="100" y="266" width="56" height="28" rx="14" fill="#2a2018"/>
  <text x="128" y="285" fill="#8a7a6a" font-size="12" font-family="sans-serif" text-anchor="middle">Music</text>
  <rect x="164" y="266" width="62" height="28" rx="14" fill="#2a2018"/>
  <text x="195" y="285" fill="#8a7a6a" font-size="12" font-family="sans-serif" text-anchor="middle">Comedy</text>
  <rect x="234" y="266" width="44" height="28" rx="14" fill="#2a2018"/>
  <text x="256" y="285" fill="#8a7a6a" font-size="12" font-family="sans-serif" text-anchor="middle">Tech</text>
  <rect x="286" y="266" width="44" height="28" rx="14" fill="#2a2018"/>
  <text x="308" y="285" fill="#8a7a6a" font-size="12" font-family="sans-serif" text-anchor="middle">Food</text>

  <!-- Video Card 1 -->
  <rect x="16" y="306" width="358" height="90" rx="10" fill="#1a1410"/>
  <rect x="16" y="306" width="120" height="90" rx="10" fill="#3a3028"/>
  <!-- Play triangle on thumbnail -->
  <polygon points="60,340 60,358 76,349" fill="#e8920a" opacity="0.8"/>
  <text x="146" y="330" fill="#f0e8d8" font-size="13" font-weight="600" font-family="sans-serif">Nairobi Street Food Tour</text>
  <text x="146" y="350" fill="#8a7a6a" font-size="11" font-family="sans-serif">KE FoodVlogs</text>
  <text x="146" y="368" fill="#8a7a6a" font-size="11" font-family="sans-serif">1.2M views · 14:32</text>

  <!-- Video Card 2 -->
  <rect x="16" y="406" width="358" height="90" rx="10" fill="#1a1410"/>
  <rect x="16" y="406" width="120" height="90" rx="10" fill="#3a3028"/>
  <polygon points="60,440 60,458 76,449" fill="#e8920a" opacity="0.8"/>
  <text x="146" y="430" fill="#f0e8d8" font-size="13" font-weight="600" font-family="sans-serif">Afrobeats Mix 2024</text>
  <text x="146" y="450" fill="#8a7a6a" font-size="11" font-family="sans-serif">DJ Afro Wave</text>
  <text x="146" y="468" fill="#8a7a6a" font-size="11" font-family="sans-serif">850K views · 1:02:10</text>

  <!-- Section Header: Hot Tracks -->
  <text x="16" y="524" fill="#f0e8d8" font-size="16" font-weight="700" font-family="sans-serif">Hot Tracks</text>
  <text x="358" y="524" fill="#e8920a" font-size="12" font-family="sans-serif" text-anchor="end">See all</text>

  <!-- Horizontal Audio Cards -->
  <rect x="16" y="534" width="100" height="120" rx="10" fill="#1a1410"/>
  <rect x="16" y="534" width="100" height="80" rx="10" fill="#3a3028"/>
  <!-- Music note icon -->
  <text x="66" y="584" fill="#e8920a" font-size="24" font-family="sans-serif" text-anchor="middle">♪</text>
  <text x="66" y="626" fill="#f0e8d8" font-size="10" font-weight="600" font-family="sans-serif" text-anchor="middle">Jẹ Kí A Jó</text>
  <text x="66" y="642" fill="#8a7a6a" font-size="9" font-family="sans-serif" text-anchor="middle">Burna Boy</text>

  <rect x="124" y="534" width="100" height="120" rx="10" fill="#1a1410"/>
  <rect x="124" y="534" width="100" height="80" rx="10" fill="#3a3028"/>
  <text x="174" y="584" fill="#e8920a" font-size="24" font-family="sans-serif" text-anchor="middle">♪</text>
  <text x="174" y="626" fill="#f0e8d8" font-size="10" font-weight="600" font-family="sans-serif" text-anchor="middle">Amapiano Vibes</text>
  <text x="174" y="642" fill="#8a7a6a" font-size="9" font-family="sans-serif" text-anchor="middle">DBN Gogo</text>

  <rect x="232" y="534" width="100" height="120" rx="10" fill="#1a1410"/>
  <rect x="232" y="534" width="100" height="80" rx="10" fill="#3a3028"/>
  <text x="282" y="584" fill="#e8920a" font-size="24" font-family="sans-serif" text-anchor="middle">♪</text>
  <text x="282" y="626" fill="#f0e8d8" font-size="10" font-weight="600" font-family="sans-serif" text-anchor="middle">Highlife Reborn</text>
  <text x="282" y="642" fill="#8a7a6a" font-size="9" font-family="sans-serif" text-anchor="middle">KiDi</text>

  <!-- Bottom Tab Bar -->
  <rect x="0" y="780" width="390" height="64" rx="0" fill="#1a1410"/>
  <line x1="0" y1="780" x2="390" y2="780" stroke="#2a2018" stroke-width="1"/>
  <!-- Home tab (active) -->
  <text x="49" y="806" fill="#e8920a" font-size="20" font-family="sans-serif" text-anchor="middle">⌂</text>
  <text x="49" y="822" fill="#e8920a" font-size="10" font-family="sans-serif" text-anchor="middle">Home</text>
  <!-- Music tab -->
  <text x="146" y="806" fill="#8a7a6a" font-size="20" font-family="sans-serif" text-anchor="middle">♫</text>
  <text x="146" y="822" fill="#8a7a6a" font-size="10" font-family="sans-serif" text-anchor="middle">Music</text>
  <!-- Blogs tab -->
  <text x="244" y="806" fill="#8a7a6a" font-size="20" font-family="sans-serif" text-anchor="middle">✎</text>
  <text x="244" y="822" fill="#8a7a6a" font-size="10" font-family="sans-serif" text-anchor="middle">Blogs</text>
  <!-- Dashboard tab -->
  <text x="341" y="806" fill="#8a7a6a" font-size="20" font-family="sans-serif" text-anchor="middle">☰</text>
  <text x="341" y="822" fill="#8a7a6a" font-size="10" font-family="sans-serif" text-anchor="middle">Dashboard</text>
</svg>
