<svg xmlns="http://www.w3.org/2000/svg" width="390" height="844" viewBox="0 0 390 844">
  <!-- Background -->
  <rect width="390" height="844" fill="#0f0b08" rx="40"/>

  <!-- Status bar -->
  <text x="20" y="26" fill="#f0e8d8" font-size="12" font-family="sans-serif">9:41</text>
  <text x="340" y="26" fill="#f0e8d8" font-size="12" font-family="sans-serif">●●●</text>

  <!-- Search Bar with query typed -->
  <rect x="16" y="44" width="338" height="44" rx="22" fill="#2a2018"/>
  <circle cx="40" cy="66" r="7" fill="none" stroke="#8a7a6a" stroke-width="2"/>
  <line x1="45" y1="71" x2="51" y2="77" stroke="#8a7a6a" stroke-width="2" stroke-linecap="round"/>
  <text x="60" y="71" fill="#f0e8d8" font-size="14" font-family="sans-serif">afrobeats</text>
  <!-- Clear button -->
  <circle cx="344" cy="66" r="10" fill="#3a3028"/>
  <line x1="338" y1="60" x2="350" y2="72" stroke="#8a7a6a" stroke-width="2" stroke-linecap="round"/>
  <line x1="350" y1="60" x2="338" y2="72" stroke="#8a7a6a" stroke-width="2" stroke-linecap="round"/>

  <!-- Video Card 1 -->
  <rect x="16" y="108" width="358" height="90" rx="10" fill="#1a1410"/>
  <rect x="16" y="108" width="120" height="90" rx="10" fill="#3a3028"/>
  <polygon points="60,142 60,160 76,151" fill="#e8920a" opacity="0.8"/>
  <text x="146" y="132" fill="#f0e8d8" font-size="13" font-weight="600" font-family="sans-serif">Afrobeats Hits 2024</text>
  <text x="146" y="152" fill="#8a7a6a" font-size="11" font-family="sans-serif">DJ Afro Wave</text>
  <text x="146" y="172" fill="#8a7a6a" font-size="11" font-family="sans-serif">2.1M views · 45:00</text>

  <!-- Video Card 2 -->
  <rect x="16" y="208" width="358" height="90" rx="10" fill="#1a1410"/>
  <rect x="16" y="208" width="120" height="90" rx="10" fill="#3a3028"/>
  <polygon points="60,242 60,260 76,251" fill="#e8920a" opacity="0.8"/>
  <text x="146" y="232" fill="#f0e8d8" font-size="13" font-weight="600" font-family="sans-serif">Best of Burna Boy</text>
  <text x="146" y="252" fill="#8a7a6a" font-size="11" font-family="sans-serif">AfriMusicTV</text>
  <text x="146" y="272" fill="#8a7a6a" font-size="11" font-family="sans-serif">980K views · 1:12:00</text>

  <!-- Video Card 3 -->
  <rect x="16" y="308" width="358" height="90" rx="10" fill="#1a1410"/>
  <rect x="16" y="308" width="120" height="90" rx="10" fill="#3a3028"/>
  <polygon points="60,342 60,360 76,351" fill="#e8920a" opacity="0.8"/>
  <text x="146" y="332" fill="#f0e8d8" font-size="13" font-weight="600" font-family="sans-serif">Afrobeats Dance Tutorial</text>
  <text x="146" y="352" fill="#8a7a6a" font-size="11" font-family="sans-serif">Lagos Dance Crew</text>
  <text x="146" y="372" fill="#8a7a6a" font-size="11" font-family="sans-serif">540K views · 22:15</text>

  <!-- Video Card 4 -->
  <rect x="16" y="408" width="358" height="90" rx="10" fill="#1a1410"/>
  <rect x="16" y="408" width="120" height="90" rx="10" fill="#3a3028"/>
  <polygon points="60,442 60,460 76,451" fill="#e8920a" opacity="0.8"/>
  <text x="146" y="432" fill="#f0e8d8" font-size="13" font-weight="600" font-family="sans-serif">Amapiano vs Afrobeats</text>
  <text x="146" y="452" fill="#8a7a6a" font-size="11" font-family="sans-serif">SA Sounds</text>
  <text x="146" y="472" fill="#8a7a6a" font-size="11" font-family="sans-serif">730K views · 38:40</text>

  <!-- Video Card 5 (partial) -->
  <rect x="16" y="508" width="358" height="90" rx="10" fill="#1a1410"/>
  <rect x="16" y="508" width="120" height="90" rx="10" fill="#3a3028"/>
  <polygon points="60,542 60,560 76,551" fill="#e8920a" opacity="0.8"/>
  <text x="146" y="532" fill="#f0e8d8" font-size="13" font-weight="600" font-family="sans-serif">Top Afrobeats of All Time</text>
  <text x="146" y="552" fill="#8a7a6a" font-size="11" font-family="sans-serif">Afri Sounds</text>
  <text x="146" y="572" fill="#8a7a6a" font-size="11" font-family="sans-serif">1.5M views · 55:30</text>

  <!-- Bottom Tab Bar -->
  <rect x="0" y="780" width="390" height="64" fill="#1a1410"/>
  <line x1="0" y1="780" x2="390" y2="780" stroke="#2a2018" stroke-width="1"/>
  <text x="49" y="806" fill="#8a7a6a" font-size="20" font-family="sans-serif" text-anchor="middle">⌂</text>
  <text x="49" y="822" fill="#8a7a6a" font-size="10" font-family="sans-serif" text-anchor="middle">Home</text>
  <text x="146" y="806" fill="#8a7a6a" font-size="20" font-family="sans-serif" text-anchor="middle">♫</text>
  <text x="146" y="822" fill="#8a7a6a" font-size="10" font-family="sans-serif" text-anchor="middle">Music</text>
  <text x="244" y="806" fill="#8a7a6a" font-size="20" font-family="sans-serif" text-anchor="middle">✎</text>
  <text x="244" y="822" fill="#8a7a6a" font-size="10" font-family="sans-serif" text-anchor="middle">Blogs</text>
  <text x="341" y="806" fill="#8a7a6a" font-size="20" font-family="sans-serif" text-anchor="middle">☰</text>
  <text x="341" y="822" fill="#8a7a6a" font-size="10" font-family="sans-serif" text-anchor="middle">Dashboard</text>

  <!-- Screen label -->
  <rect x="97" y="748" width="196" height="24" rx="6" fill="#1a1410"/>
  <text x="195" y="765" fill="#8a7a6a" font-size="11" font-family="sans-serif" text-anchor="middle">Screen 6 of 11 · Search Results</text>
</svg>
