<svg xmlns="http://www.w3.org/2000/svg" width="390" height="844" viewBox="0 0 390 844">
  <!-- Background -->
  <rect width="390" height="844" fill="#0f0b08" rx="40"/>

  <!-- Status bar -->
  <text x="20" y="26" fill="#f0e8d8" font-size="12" font-family="sans-serif">9:41</text>
  <text x="340" y="26" fill="#f0e8d8" font-size="12" font-family="sans-serif">●●●</text>

  <!-- Section Header -->
  <text x="16" y="64" fill="#f0e8d8" font-size="18" font-weight="700" font-family="sans-serif">Hot Tracks</text>
  <text x="16" y="82" fill="#8a7a6a" font-size="13" font-family="sans-serif">Afrobeats, Amapiano, Highlife and more</text>

  <!-- Row 1: 2 audio cards -->
  <!-- Card 1 -->
  <rect x="16" y="100" width="174" height="200" rx="14" fill="#1a1410"/>
  <rect x="16" y="100" width="174" height="148" rx="14" fill="#3a3028"/>
  <text x="103" y="188" fill="#e8920a" font-size="40" font-family="sans-serif" text-anchor="middle">♪</text>
  <text x="103" y="266" fill="#f0e8d8" font-size="13" font-weight="600" font-family="sans-serif" text-anchor="middle">Jẹ Kí A Jó</text>
  <text x="103" y="284" fill="#8a7a6a" font-size="11" font-family="sans-serif" text-anchor="middle">Burna Boy</text>
  <text x="103" y="296" fill="#8a7a6a" font-size="10" font-family="sans-serif" text-anchor="middle">4.2M streams</text>

  <!-- Card 2 -->
  <rect x="200" y="100" width="174" height="200" rx="14" fill="#1a1410"/>
  <rect x="200" y="100" width="174" height="148" rx="14" fill="#3a3028"/>
  <text x="287" y="188" fill="#e8920a" font-size="40" font-family="sans-serif" text-anchor="middle">♪</text>
  <text x="287" y="266" fill="#f0e8d8" font-size="13" font-weight="600" font-family="sans-serif" text-anchor="middle">Amapiano Vibes</text>
  <text x="287" y="284" fill="#8a7a6a" font-size="11" font-family="sans-serif" text-anchor="middle">DBN Gogo</text>
  <text x="287" y="296" fill="#8a7a6a" font-size="10" font-family="sans-serif" text-anchor="middle">3.8M streams</text>

  <!-- Row 2 -->
  <!-- Card 3 -->
  <rect x="16" y="312" width="174" height="200" rx="14" fill="#1a1410"/>
  <rect x="16" y="312" width="174" height="148" rx="14" fill="#3a3028"/>
  <text x="103" y="400" fill="#e8920a" font-size="40" font-family="sans-serif" text-anchor="middle">♪</text>
  <text x="103" y="478" fill="#f0e8d8" font-size="13" font-weight="600" font-family="sans-serif" text-anchor="middle">Highlife Reborn</text>
  <text x="103" y="496" fill="#8a7a6a" font-size="11" font-family="sans-serif" text-anchor="middle">KiDi</text>
  <text x="103" y="508" fill="#8a7a6a" font-size="10" font-family="sans-serif" text-anchor="middle">2.9M streams</text>

  <!-- Card 4 -->
  <rect x="200" y="312" width="174" height="200" rx="14" fill="#1a1410"/>
  <rect x="200" y="312" width="174" height="148" rx="14" fill="#3a3028"/>
  <text x="287" y="400" fill="#e8920a" font-size="40" font-family="sans-serif" text-anchor="middle">♪</text>
  <text x="287" y="478" fill="#f0e8d8" font-size="13" font-weight="600" font-family="sans-serif" text-anchor="middle">Zouglou Mix</text>
  <text x="287" y="496" fill="#8a7a6a" font-size="11" font-family="sans-serif" text-anchor="middle">Magic System</text>
  <text x="287" y="508" fill="#8a7a6a" font-size="10" font-family="sans-serif" text-anchor="middle">1.7M streams</text>

  <!-- Row 3 (partial) -->
  <!-- Card 5 -->
  <rect x="16" y="524" width="174" height="200" rx="14" fill="#1a1410"/>
  <rect x="16" y="524" width="174" height="148" rx="14" fill="#3a3028"/>
  <text x="103" y="612" fill="#e8920a" font-size="40" font-family="sans-serif" text-anchor="middle">♪</text>
  <text x="103" y="690" fill="#f0e8d8" font-size="13" font-weight="600" font-family="sans-serif" text-anchor="middle">Bongo Flava</text>
  <text x="103" y="708" fill="#8a7a6a" font-size="11" font-family="sans-serif" text-anchor="middle">Diamond Platnumz</text>

  <!-- Card 6 -->
  <rect x="200" y="524" width="174" height="200" rx="14" fill="#1a1410"/>
  <rect x="200" y="524" width="174" height="148" rx="14" fill="#3a3028"/>
  <text x="287" y="612" fill="#e8920a" font-size="40" font-family="sans-serif" text-anchor="middle">♪</text>
  <text x="287" y="690" fill="#f0e8d8" font-size="13" font-weight="600" font-family="sans-serif" text-anchor="middle">Afro Soul</text>
  <text x="287" y="708" fill="#8a7a6a" font-size="11" font-family="sans-serif" text-anchor="middle">Simba Tagz</text>

  <!-- Bottom Tab Bar -->
  <rect x="0" y="780" width="390" height="64" fill="#1a1410"/>
  <line x1="0" y1="780" x2="390" y2="780" stroke="#2a2018" stroke-width="1"/>
  <text x="49" y="806" fill="#8a7a6a" font-size="20" font-family="sans-serif" text-anchor="middle">⌂</text>
  <text x="49" y="822" fill="#8a7a6a" font-size="10" font-family="sans-serif" text-anchor="middle">Home</text>
  <text x="146" y="806" fill="#e8920a" font-size="20" font-family="sans-serif" text-anchor="middle">♫</text>
  <text x="146" y="822" fill="#e8920a" font-size="10" font-family="sans-serif" text-anchor="middle">Music</text>
  <text x="244" y="806" fill="#8a7a6a" font-size="20" font-family="sans-serif" text-anchor="middle">✎</text>
  <text x="244" y="822" fill="#8a7a6a" font-size="10" font-family="sans-serif" text-anchor="middle">Blogs</text>
  <text x="341" y="806" fill="#8a7a6a" font-size="20" font-family="sans-serif" text-anchor="middle">☰</text>
  <text x="341" y="822" fill="#8a7a6a" font-size="10" font-family="sans-serif" text-anchor="middle">Dashboard</text>
</svg>
