<svg width="390" height="844" viewBox="0 0 390 844" xmlns="http://www.w3.org/2000/svg" font-family="Inter, system-ui, sans-serif">
  <rect width="390" height="844" fill="#0f0b08"/>
  <!-- Status bar -->
  <rect width="390" height="44" fill="#0f0b08"/>
  <text x="20" y="28" fill="#f0e8d8" font-size="13" font-weight="600">9:41</text>
  <text x="340" y="28" fill="#f0e8d8" font-size="12">●●● 100%</text>

  <!-- Video player (16:9) -->
  <rect x="0" y="44" width="390" height="220" fill="#000000"/>
  <text x="195" y="160" fill="#8a7a6a" font-size="40" text-anchor="middle">▶</text>
  <text x="195" y="200" fill="#8a7a6a" font-size="13" text-anchor="middle">Nairobi Street Food Tour</text>

  <!-- Video info -->
  <text x="16" y="292" fill="#f0e8d8" font-size="18" font-weight="700">Nairobi Street Food Tour - Best Spots 2025</text>
  <text x="16" y="316" fill="#8a7a6a" font-size="13">24,521 views · Food</text>

  <!-- Action buttons -->
  <line x1="16" y1="332" x2="374" y2="332" stroke="#2a2018" stroke-width="1"/>
  <text x="60" y="364" fill="#8a7a6a" font-size="22" text-anchor="middle">♡</text>
  <text x="60" y="382" fill="#8a7a6a" font-size="12" text-anchor="middle">Like</text>
  <text x="160" y="364" fill="#8a7a6a" font-size="22" text-anchor="middle">⤴</text>
  <text x="160" y="382" fill="#8a7a6a" font-size="12" text-anchor="middle">Share</text>
  <text x="260" y="364" fill="#8a7a6a" font-size="22" text-anchor="middle">🔖</text>
  <text x="260" y="382" fill="#8a7a6a" font-size="12" text-anchor="middle">Save</text>
  <line x1="16" y1="396" x2="374" y2="396" stroke="#2a2018" stroke-width="1"/>

  <!-- Creator row -->
  <circle cx="38" cy="428" r="22" fill="#e8920a"/>
  <text x="38" y="435" fill="#0f0b08" font-size="18" font-weight="bold" text-anchor="middle">A</text>
  <text x="72" y="422" fill="#f0e8d8" font-size="15" font-weight="600">AfriCreator</text>
  <text x="72" y="440" fill="#8a7a6a" font-size="12">1,240 subscribers</text>
  <rect x="300" y="412" width="74" height="32" rx="999" fill="#e8920a"/>
  <text x="337" y="433" fill="#0f0b08" font-size="13" font-weight="600" text-anchor="middle">Subscribe</text>

  <!-- Description -->
  <rect x="16" y="464" width="358" height="80" rx="10" fill="#1a1410"/>
  <text x="28" y="488" fill="#8a7a6a" font-size="14">Join us as we explore the best street food</text>
  <text x="28" y="508" fill="#8a7a6a" font-size="14">spots in Nairobi — from nyama choma to</text>
  <text x="28" y="528" fill="#8a7a6a" font-size="14">mandazi and everything in between.</text>
</svg>
