<svg xmlns="http://www.w3.org/2000/svg" width="390" height="844" viewBox="0 0 390 844">
  <!-- Background -->
  <rect width="390" height="844" fill="#0f0b08" rx="40"/>

  <!-- Status bar -->
  <text x="20" y="26" fill="#f0e8d8" font-size="12" font-family="sans-serif">9:41</text>
  <text x="340" y="26" fill="#f0e8d8" font-size="12" font-family="sans-serif">●●●</text>

  <!-- Section Header -->
  <text x="16" y="64" fill="#f0e8d8" font-size="18" font-weight="700" font-family="sans-serif">Featured Stories</text>
  <text x="16" y="82" fill="#8a7a6a" font-size="13" font-family="sans-serif">Voices and stories from the continent</text>

  <!-- Blog Card 1 -->
  <rect x="16" y="100" width="358" height="220" rx="14" fill="#1a1410"/>
  <!-- Cover image placeholder -->
  <rect x="16" y="100" width="358" height="140" rx="14" fill="#3a3028"/>
  <text x="195" y="178" fill="#8a7a6a" font-size="13" font-family="sans-serif" text-anchor="middle">[ Cover Image ]</text>
  <!-- Badge -->
  <rect x="32" y="252" width="64" height="20" rx="6" fill="#e8920a33"/>
  <text x="64" y="265" fill="#e8920a" font-size="10" font-weight="600" font-family="sans-serif" text-anchor="middle">CULTURE</text>
  <!-- Title -->
  <text x="32" y="286" fill="#f0e8d8" font-size="14" font-weight="700" font-family="sans-serif">The Rise of Afrobeats on</text>
  <text x="32" y="302" fill="#f0e8d8" font-size="14" font-weight="700" font-family="sans-serif">the Global Stage</text>
  <!-- Meta -->
  <text x="32" y="316" fill="#8a7a6a" font-size="11" font-family="sans-serif">Kofi Mensah · 142 likes</text>

  <!-- Blog Card 2 -->
  <rect x="16" y="332" width="358" height="210" rx="14" fill="#1a1410"/>
  <rect x="16" y="332" width="358" height="130" rx="14" fill="#3a3028"/>
  <text x="195" y="404" fill="#8a7a6a" font-size="13" font-family="sans-serif" text-anchor="middle">[ Cover Image ]</text>
  <!-- Badge -->
  <rect x="32" y="474" width="56" height="20" rx="6" fill="#e8920a33"/>
  <text x="60" y="487" fill="#e8920a" font-size="10" font-weight="600" font-family="sans-serif" text-anchor="middle">TRAVEL</text>
  <!-- Title -->
  <text x="32" y="508" fill="#f0e8d8" font-size="14" font-weight="700" font-family="sans-serif">10 Hidden Gems in East Africa</text>
  <!-- Excerpt -->
  <text x="32" y="526" fill="#8a7a6a" font-size="12" font-family="sans-serif">From Zanzibar's spice markets to Rwanda's</text>
  <text x="32" y="540" fill="#8a7a6a" font-size="12" font-family="sans-serif">lush hills — here's where to go next.</text>

  <!-- Blog Card 3 (partial) -->
  <rect x="16" y="554" width="358" height="180" rx="14" fill="#1a1410"/>
  <rect x="16" y="554" width="358" height="110" rx="14" fill="#3a3028"/>
  <text x="195" y="616" fill="#8a7a6a" font-size="13" font-family="sans-serif" text-anchor="middle">[ Cover Image ]</text>
  <rect x="32" y="676" width="56" height="20" rx="6" fill="#e8920a33"/>
  <text x="60" y="689" fill="#e8920a" font-size="10" font-weight="600" font-family="sans-serif" text-anchor="middle">TECH</text>
  <text x="32" y="714" fill="#f0e8d8" font-size="14" font-weight="700" font-family="sans-serif">Africa's Tech Boom in 2024</text>

  <!-- Bottom Tab Bar -->
  <rect x="0" y="780" width="390" height="64" fill="#1a1410"/>
  <line x1="0" y1="780" x2="390" y2="780" stroke="#2a2018" stroke-width="1"/>
  <text x="49" y="806" fill="#8a7a6a" font-size="20" font-family="sans-serif" text-anchor="middle">⌂</text>
  <text x="49" y="822" fill="#8a7a6a" font-size="10" font-family="sans-serif" text-anchor="middle">Home</text>
  <text x="146" y="806" fill="#8a7a6a" font-size="20" font-family="sans-serif" text-anchor="middle">♫</text>
  <text x="146" y="822" fill="#8a7a6a" font-size="10" font-family="sans-serif" text-anchor="middle">Music</text>
  <text x="244" y="806" fill="#e8920a" font-size="20" font-family="sans-serif" text-anchor="middle">✎</text>
  <text x="244" y="822" fill="#e8920a" font-size="10" font-family="sans-serif" text-anchor="middle">Blogs</text>
  <text x="341" y="806" fill="#8a7a6a" font-size="20" font-family="sans-serif" text-anchor="middle">☰</text>
  <text x="341" y="822" fill="#8a7a6a" font-size="10" font-family="sans-serif" text-anchor="middle">Dashboard</text>
</svg>
