<svg width="390" height="844" viewBox="0 0 390 844" xmlns="http://www.w3.org/2000/svg" font-family="Inter, system-ui, sans-serif">
  <rect width="390" height="844" fill="#0f0b08"/>
  <!-- Status bar -->
  <rect width="390" height="44" fill="#0f0b08"/>
  <text x="20" y="28" fill="#f0e8d8" font-size="13" font-weight="600">9:41</text>
  <text x="340" y="28" fill="#f0e8d8" font-size="12">●●● 100%</text>
  <!-- Header -->
  <rect x="0" y="44" width="390" height="56" fill="#0f0b08"/>
  <text x="20" y="80" fill="#f0e8d8" font-size="20" font-weight="bold">Search</text>

  <!-- Search bar with query -->
  <rect x="16" y="112" width="358" height="44" rx="999" fill="#2a2018"/>
  <text x="44" y="139" fill="#8a7a6a" font-size="14">🔍</text>
  <text x="68" y="139" fill="#f0e8d8" font-size="15">nairobi</text>
  <text x="356" y="139" fill="#8a7a6a" font-size="18" text-anchor="end">✕</text>

  <!-- Search result 1 -->
  <rect x="16" y="172" width="358" height="200" rx="10" fill="#1a1410"/>
  <rect x="16" y="172" width="358" height="140" rx="10" fill="#2a2018"/>
  <text x="195" y="249" fill="#8a7a6a" font-size="13" text-anchor="middle">▶ Video Thumbnail</text>
  <rect x="310" y="200" width="52" height="20" rx="4" fill="rgba(0,0,0,0.8)"/>
  <text x="336" y="214" fill="#ffffff" font-size="11" font-weight="600" text-anchor="middle">12:34</text>
  <text x="28" y="336" fill="#f0e8d8" font-size="14" font-weight="600">Nairobi Street Food Tour - Best Spots 2025</text>
  <text x="28" y="356" fill="#8a7a6a" font-size="12">AfriCreator · 24.5K views</text>

  <!-- Search result 2 -->
  <rect x="16" y="388" width="358" height="200" rx="10" fill="#1a1410"/>
  <rect x="16" y="388" width="358" height="140" rx="10" fill="#2a2018"/>
  <text x="195" y="465" fill="#8a7a6a" font-size="13" text-anchor="middle">▶ Video Thumbnail</text>
  <rect x="310" y="416" width="44" height="20" rx="4" fill="rgba(0,0,0,0.8)"/>
  <text x="332" y="430" fill="#ffffff" font-size="11" font-weight="600" text-anchor="middle">6:15</text>
  <text x="28" y="552" fill="#f0e8d8" font-size="14" font-weight="600">Nairobi Tech Scene - Startup Stories</text>
  <text x="28" y="572" fill="#8a7a6a" font-size="12">TechKenya · 8.1K views</text>
</svg>
