<svg xmlns="http://www.w3.org/2000/svg" width="390" height="844" viewBox="0 0 390 844">
  <!-- Background -->
  <rect width="390" height="844" fill="#0f0b08" rx="40"/>

  <!-- Status bar -->
  <text x="20" y="26" fill="#f0e8d8" font-size="12" font-family="sans-serif">9:41</text>
  <text x="340" y="26" fill="#f0e8d8" font-size="12" font-family="sans-serif">●●●</text>

  <!-- Person icon (circle + body) -->
  <circle cx="195" cy="310" r="40" fill="none" stroke="#8a7a6a" stroke-width="3"/>
  <circle cx="195" cy="295" r="14" fill="#8a7a6a"/>
  <path d="M155 340 Q155 320 195 320 Q235 320 235 340" fill="#8a7a6a"/>

  <!-- Title -->
  <text x="195" y="386" fill="#f0e8d8" font-size="22" font-weight="bold" font-family="sans-serif" text-anchor="middle">Sign in to AfriTube</text>

  <!-- Description -->
  <text x="195" y="412" fill="#8a7a6a" font-size="13" font-family="sans-serif" text-anchor="middle">Upload content, track your stats,</text>
  <text x="195" y="430" fill="#8a7a6a" font-size="13" font-family="sans-serif" text-anchor="middle">and grow your audience.</text>

  <!-- Sign In button -->
  <rect x="120" y="452" width="150" height="44" rx="22" fill="#e8920a"/>
  <text x="195" y="479" fill="#0f0b08" font-size="16" font-weight="600" font-family="sans-serif" text-anchor="middle">Sign In</text>

  <!-- Bottom Tab Bar -->
  <rect x="0" y="780" width="390" height="64" fill="#1a1410"/>
  <line x1="0" y1="780" x2="390" y2="780" stroke="#2a2018" stroke-width="1"/>
  <text x="49" y="806" fill="#8a7a6a" font-size="20" font-family="sans-serif" text-anchor="middle">⌂</text>
  <text x="49" y="822" fill="#8a7a6a" font-size="10" font-family="sans-serif" text-anchor="middle">Home</text>
  <text x="146" y="806" fill="#8a7a6a" font-size="20" font-family="sans-serif" text-anchor="middle">♫</text>
  <text x="146" y="822" fill="#8a7a6a" font-size="10" font-family="sans-serif" text-anchor="middle">Music</text>
  <text x="244" y="806" fill="#8a7a6a" font-size="20" font-family="sans-serif" text-anchor="middle">✎</text>
  <text x="244" y="822" fill="#8a7a6a" font-size="10" font-family="sans-serif" text-anchor="middle">Blogs</text>
  <text x="341" y="806" fill="#e8920a" font-size="20" font-family="sans-serif" text-anchor="middle">☰</text>
  <text x="341" y="822" fill="#e8920a" font-size="10" font-family="sans-serif" text-anchor="middle">Dashboard</text>

  <!-- Screen label -->
  <rect x="97" y="748" width="196" height="24" rx="6" fill="#1a1410"/>
  <text x="195" y="765" fill="#8a7a6a" font-size="11" font-family="sans-serif" text-anchor="middle">Screen 10 of 11 · Dashboard (Guest)</text>
</svg>
