<svg xmlns="http://www.w3.org/2000/svg" width="390" height="844" viewBox="0 0 390 844">
  <!-- Background -->
  <rect width="390" height="844" fill="#0f0b08" rx="40"/>

  <!-- Status bar -->
  <text x="20" y="26" fill="#f0e8d8" font-size="12" font-family="sans-serif">9:41</text>
  <text x="340" y="26" fill="#f0e8d8" font-size="12" font-family="sans-serif">●●●</text>

  <!-- Profile Header -->
  <circle cx="44" cy="80" r="28" fill="#e8920a"/>
  <text x="44" y="89" fill="#0f0b08" font-size="22" font-weight="bold" font-family="sans-serif" text-anchor="middle">K</text>
  <text x="82" y="68" fill="#f0e8d8" font-size="18" font-weight="bold" font-family="sans-serif">Kofi Mensah</text>
  <text x="82" y="86" fill="#8a7a6a" font-size="13" font-family="sans-serif">kofi@example.com</text>
  <!-- Monetized badge -->
  <rect x="82" y="92" width="88" height="18" rx="6" fill="#e8920a33"/>
  <text x="126" y="104" fill="#e8920a" font-size="10" font-weight="700" font-family="sans-serif" text-anchor="middle">+ MONETIZED</text>
  <!-- Logout icon -->
  <text x="358" y="84" fill="#8a7a6a" font-size="20" font-family="sans-serif" text-anchor="middle">⎋</text>

  <!-- Stats Grid -->
  <rect x="16" y="120" width="172" height="80" rx="14" fill="#1a1410"/>
  <text x="102" y="152" fill="#f0e8d8" font-size="24" font-weight="bold" font-family="sans-serif" text-anchor="middle">1,240</text>
  <text x="102" y="172" fill="#8a7a6a" font-size="12" font-family="sans-serif" text-anchor="middle">Subscribers</text>

  <rect x="202" y="120" width="172" height="80" rx="14" fill="#1a1410"/>
  <text x="288" y="152" fill="#f0e8d8" font-size="24" font-weight="bold" font-family="sans-serif" text-anchor="middle">3,892</text>
  <text x="288" y="172" fill="#8a7a6a" font-size="12" font-family="sans-serif" text-anchor="middle">Watch Hours</text>

  <!-- Monetization Progress Section -->
  <text x="16" y="232" fill="#f0e8d8" font-size="16" font-weight="700" font-family="sans-serif">Monetization Progress</text>

  <!-- Subscribers progress -->
  <text x="16" y="260" fill="#8a7a6a" font-size="13" font-family="sans-serif">Subscribers</text>
  <text x="374" y="260" fill="#f0e8d8" font-size="13" font-weight="600" font-family="sans-serif" text-anchor="end">1,240 / 100</text>
  <rect x="16" y="268" width="358" height="6" rx="3" fill="#2a2018"/>
  <rect x="16" y="268" width="358" height="6" rx="3" fill="#e8920a"/>

  <!-- Watch Hours progress -->
  <text x="16" y="300" fill="#8a7a6a" font-size="13" font-family="sans-serif">Watch Hours</text>
  <text x="374" y="300" fill="#f0e8d8" font-size="13" font-weight="600" font-family="sans-serif" text-anchor="end">3,892 / 1,000</text>
  <rect x="16" y="308" width="358" height="6" rx="3" fill="#2a2018"/>
  <rect x="16" y="308" width="358" height="6" rx="3" fill="#e8920a"/>

  <!-- Upload Content Action -->
  <rect x="16" y="340" width="358" height="56" rx="14" fill="#1a1410"/>
  <!-- Upload icon -->
  <text x="44" y="374" fill="#e8920a" font-size="20" font-family="sans-serif" text-anchor="middle">↑</text>
  <text x="68" y="374" fill="#f0e8d8" font-size="15" font-weight="500" font-family="sans-serif">Upload Content</text>
  <text x="358" y="374" fill="#8a7a6a" font-size="16" font-family="sans-serif" text-anchor="end">›</text>

  <!-- Bottom Tab Bar -->
  <rect x="0" y="780" width="390" height="64" fill="#1a1410"/>
  <line x1="0" y1="780" x2="390" y2="780" stroke="#2a2018" stroke-width="1"/>
  <text x="49" y="806" fill="#8a7a6a" font-size="20" font-family="sans-serif" text-anchor="middle">⌂</text>
  <text x="49" y="822" fill="#8a7a6a" font-size="10" font-family="sans-serif" text-anchor="middle">Home</text>
  <text x="146" y="806" fill="#8a7a6a" font-size="20" font-family="sans-serif" text-anchor="middle">♫</text>
  <text x="146" y="822" fill="#8a7a6a" font-size="10" font-family="sans-serif" text-anchor="middle">Music</text>
  <text x="244" y="806" fill="#8a7a6a" font-size="20" font-family="sans-serif" text-anchor="middle">✎</text>
  <text x="244" y="822" fill="#8a7a6a" font-size="10" font-family="sans-serif" text-anchor="middle">Blogs</text>
  <text x="341" y="806" fill="#e8920a" font-size="20" font-family="sans-serif" text-anchor="middle">☰</text>
  <text x="341" y="822" fill="#e8920a" font-size="10" font-family="sans-serif" text-anchor="middle">Dashboard</text>

  <!-- Screen label -->
  <rect x="97" y="748" width="196" height="24" rx="6" fill="#1a1410"/>
  <text x="195" y="765" fill="#8a7a6a" font-size="11" font-family="sans-serif" text-anchor="middle">Screen 11 of 11 · Dashboard (Creator)</text>
</svg>
